<?xml version="1.0" standalone="no"?><!DOCTYPE svg PUBLIC "-//W3C//DTD SVG 1.1//EN" "http://www.w3.org/Graphics/SVG/1.1/DTD/svg11.dtd"><svg t="1659927911459" class="icon" viewBox="0 0 1024 1024" version="1.1" xmlns="http://www.w3.org/2000/svg" p-id="1937" xmlns:xlink="http://www.w3.org/1999/xlink" width="128" height="128"><defs><style type="text/css"></style></defs><path d="M460.8 36.498286c8.045714 0 14.628571 6.582857 14.628571 14.628571v58.514286a14.628571 14.628571 0 0 1-14.628571 14.628571L124.342857 124.342857v775.314286h775.314286v-117.028572c0-8.045714 6.582857-14.628571 14.628571-14.628571h58.514286c8.045714 0 14.628571 6.582857 14.628571 14.628571V950.857143a36.571429 36.571429 0 0 1-36.571428 36.571428H73.142857a36.571429 36.571429 0 0 1-36.571428-36.571428V73.142857A36.571429 36.571429 0 0 1 73.142857 36.571429L460.8 36.498286z m158.573714 44.982857a43.885714 43.885714 0 0 1 61.878857-5.412572l79.140572 66.56C852.333714 19.017143 1024 68.388571 1024 217.673143c0 25.6-2.925714 42.203429-15.652571 71.753143l-8.850286 19.529143-18.505143 37.302857-7.68 15.213714c-56.685714 111.177143-61.732571 173.933714 6.436571 264.557714a36.571429 36.571429 0 0 1-58.514285 43.958857c-84.845714-112.859429-81.554286-201.142857-20.992-325.997714l25.307428-50.395428 8.557715-17.773715 6.509714-14.409143 2.486857-6.217142 3.803429-10.825143c2.048-6.582857 3.145143-12.288 3.657142-17.993143l0.292572-8.777143c0-77.531429-83.017143-101.302857-134.217143-28.013714l60.708571 50.980571a43.885714 43.885714 0 0 1 5.412572 61.805714l-378.587429 451.218286a43.885714 43.885714 0 0 1-27.501714 15.213714l-189.586286 26.843429a43.885714 43.885714 0 0 1-50.029714-41.910857l-6.509714-191.414857a43.885714 43.885714 0 0 1 10.24-29.696z m38.985143 89.965714L318.902857 576.219429l4.242286 125.805714 124.635428-17.627429 339.529143-404.699428-128.877714-108.105143z" p-id="1938"></path></svg>