<?xml version="1.0" standalone="no"?><!DOCTYPE svg PUBLIC "-//W3C//DTD SVG 1.1//EN" "http://www.w3.org/Graphics/SVG/1.1/DTD/svg11.dtd"><svg t="1740556504219" class="icon" viewBox="0 0 1024 1024" version="1.1" xmlns="http://www.w3.org/2000/svg" p-id="1452" xmlns:xlink="http://www.w3.org/1999/xlink" width="200" height="200"><path d="M656.70424563 955.84169313c11.96549789-3.91394791 23.81916871-8.38703124 35.44918537-13.3074229 55.68988742-23.59551455 105.67659361-57.25546659 148.61819353-100.19706653 41.1523666-41.1523666 73.91770198-88.90253113 97.28956237-141.79674147-23.37186038 53.00603742-56.02536868 100.64437486-97.28956237 141.79674147-42.94159994 42.94159994-92.92830612 76.60155198-148.61819353 100.19706653-11.74184374 4.92039165-23.48368747 9.39347499-35.44918537 13.3074229z m-312.66852455-6.93327915c-5.2558729-2.0128875-10.6235729-4.13760208-15.87944582-6.37414375-5.59135415-2.34836875-11.07088124-4.80856458-16.43858122-7.38058749 5.47952708 2.57202291 10.95905415 5.03221875 16.55040831 7.38058749 5.2558729 2.23654165 10.51174582 4.36125625 15.76761873 6.37414375z m-164.38581227-106.57121028z m762.99618849-152.8676227c23.14820621-56.36084992 34.89004995-116.07651234 34.89004995-177.69323516 0.11182709 61.61672282-11.63001665 121.33238525-34.89004995 177.69323516z m-868.89643627-9.84078333c-20.12887497-52.22324784-30.5287937-107.13034568-30.97610202-163.60302268 0.44730834 56.47267701 10.84722706 111.37977484 30.97610202 163.60302268zM42.77355901 514.90750415c0-1.00644375 0-1.00644375 0 0z m934.87441533-3.01933124c0-52.89421034-8.72251249-104.44649569-25.83205621-153.65041228 17.10954373 49.20391659 25.83205621 100.75620195 25.83205621 153.65041228z m-934.87441533 0c0-1.11827084 0-1.11827084 0 0z m0-4.47308332c0.44730834-47.41468328 7.82789582-93.82292278 22.14176246-138.33010189-14.31386665 44.50717909-21.69445414 90.80359153-22.14176246 138.33010189z m909.04235912-149.17732896c0-0.11182709 0-0.11182709 0 0z m-27.84494371-64.18874573z m-0.11182708 0c-13.30742289-25.38474788-28.96321455-49.31574369-46.74372077-71.79298741 17.78050623 22.47724371 33.43629787 46.40823952 46.74372077 71.79298741z m-46.74372077-71.90481449c-0.11182709-0.11182709-0.11182709-0.11182709 0 0z m-0.33548125-0.44730834z m-0.11182708-0.11182708z m-0.11182709-0.11182708z m-9.72895624-11.74184374z m-0.11182708-0.22365415z m0-0.11182709c-0.11182709 0-0.11182709 0 0 0z m-0.11182708-0.11182709z m-0.11182709-0.11182707z m-0.11182707-0.1118271c-8.16337707-9.61712915-16.66223539-18.78694997-25.72022913-27.8449437-8.49885832-8.49885832-17.22137081-16.55040831-26.27936455-24.37830413 9.05799374 7.71606874 17.78050623 15.87944581 26.27936455 24.37830413 9.05799374 9.05799374 17.55685206 18.33964164 25.72022913 27.8449437zM701.77056014 85.26785061c-3.13115834-1.45375209-6.37414375-2.79567708-9.61712914-4.24942916-2.0128875-0.78278959-3.91394791-1.67740625-5.9268354-2.46019583 2.0128875 0.78278959 3.91394791 1.67740625 5.9268354 2.46019583 3.24298541 1.45375209 6.37414375 2.90750415 9.61712914 4.24942916z"  p-id="1453"></path><path d="M510.21076666 19.84900694c-271.73981211 0-492.03916597 220.29935385-492.03916597 492.03916597s220.29935385 492.03916597 492.03916597 492.03916598 492.03916597-220.29935385 492.03916598-492.03916598-220.29935385-492.03916597-492.03916598-492.03916597z m0 934.87441534c-59.8274895 0-117.75391858-11.74184374-172.32553517-34.77822285-52.78238326-22.25358956-100.08523945-54.23613533-140.79029771-94.94119362-40.70505829-40.70505829-72.57577699-88.00791446-94.94119362-140.79029771-23.03637913-54.57161659-34.77822287-112.49804567-34.77822286-172.32553519s11.74184374-117.75391858 34.77822286-172.32553517c22.25358956-52.78238326 54.23613533-100.08523945 94.94119362-140.79029771 40.70505829-40.70505829 88.00791446-72.57577699 140.79029771-94.94119362 54.57161659-23.03637913 112.49804567-34.77822287 172.32553517-34.77822287s117.75391858 11.74184374 172.32553519 34.77822287c52.78238326 22.25358956 100.08523945 54.23613533 140.79029771 94.94119362 40.70505829 40.70505829 72.57577699 88.00791446 94.94119362 140.79029771 23.03637913 54.57161659 34.77822287 112.49804567 34.77822286 172.32553517S941.3041723 629.6420915 918.26779318 684.2137081c-22.25358956 52.67055618-54.23613533 100.08523945-94.94119362 140.79029771-40.70505829 40.70505829-88.00791446 72.57577699-140.79029771 94.94119362-54.57161659 23.03637913-112.49804567 34.77822287-172.32553519 34.77822285z"  p-id="1454"></path><path d="M696.85016849 290.47054823L510.21076666 476.99812296 323.57136486 290.47054823c-9.61712915-9.61712915-25.16109371-9.61712915-34.77822288 0-9.61712915 9.61712915-9.61712915 25.16109371 0 34.77822287l186.63940183 186.63940181-186.63940183 186.52757474c-9.61712915 9.61712915-9.61712915 25.16109371 0 34.77822288 9.61712915 9.61712915 25.16109371 9.61712915 34.77822288 0L510.21076666 546.66639578l186.63940183 186.63940182c9.61712915 9.61712915 25.16109371 9.61712915 34.77822286 0 9.61712915-9.61712915 9.61712915-25.16109371 0-34.77822286L544.98898954 511.88817291 731.62839135 325.2487711c9.61712915-9.61712915 9.61712915-25.16109371 0-34.77822287-9.61712915-9.61712915-25.2729208-9.61712915-34.77822286 0z"  p-id="1455"></path></svg>