<?xml version="1.0" standalone="no"?><!DOCTYPE svg PUBLIC "-//W3C//DTD SVG 1.1//EN" "http://www.w3.org/Graphics/SVG/1.1/DTD/svg11.dtd"><svg t="1633688250420" class="icon" viewBox="0 0 1024 1024" version="1.1" xmlns="http://www.w3.org/2000/svg" p-id="2524" xmlns:xlink="http://www.w3.org/1999/xlink" width="32" height="32"><defs><style type="text/css"></style></defs><path d="M353.9 790.6c15.4 0 27.9-12.5 27.9-27.9V455.5c0-15.4-12.5-27.9-27.9-27.9-15.4 0-27.9 12.5-27.9 27.9v307.2c0 15.4 12.5 27.9 27.9 27.9z m167.5 0c15.4 0 27.9-12.5 27.9-27.9V455.5c0-15.4-12.5-27.9-27.9-27.9-15.4 0-27.9 12.5-27.9 27.9v307.2c0 15.4 12.5 27.9 27.9 27.9z m167.6 0c15.4 0 27.9-12.5 27.9-27.9V455.5c0-15.4-12.5-27.9-27.9-27.9s-28 12.4-28 27.9v307.2c0 15.4 12.5 27.9 28 27.9z m139.6-642.3H712.9c-12.5-48-55.8-83.8-107.7-83.8H437.7c-51.9 0-95.3 35.7-107.7 83.8H214.3c-61.6 0-111.7 50.1-111.7 111.7v27.9h27.9v27.9h55.8v530.5c0 61.6 50.1 111.7 111.7 111.7h446.8c61.6 0 111.7-50.1 111.7-111.7V315.9h55.8V288h27.9v-28c0.1-61.6-50-111.7-111.6-111.7z m-390.9-27.9h167.5c20.6 0 38.4 11.3 48.1 27.9H389.6c9.7-16.6 27.5-27.9 48.1-27.9z m363 726c0 30.8-25.1 55.8-55.8 55.8H298c-30.8 0-59.7-25-59.7-55.8l3.9-530.5h558.5v530.5zM158.4 260c0-30.8 25.1-55.8 55.8-55.8h614.3c30.8 0 55.8 25 55.8 55.8H158.4z" fill="" p-id="2525"></path></svg>