<?xml version="1.0" standalone="no"?><!DOCTYPE svg PUBLIC "-//W3C//DTD SVG 1.1//EN" "http://www.w3.org/Graphics/SVG/1.1/DTD/svg11.dtd"><svg t="1633869415355" class="icon" viewBox="0 0 1126 1024" version="1.1" xmlns="http://www.w3.org/2000/svg" p-id="10141" xmlns:xlink="http://www.w3.org/1999/xlink" width="219.921875" height="200"><defs><style type="text/css"></style></defs><path d="M593.92 331.093333c-5.12-5.12-13.653333-5.12-18.773333 0L296.96 607.573333c-13.653333 13.653333-20.48 30.72-20.48 49.493334l1.706667 128c0 6.826667 6.826667 13.653333 13.653333 13.653333h153.6l298.666667-296.96c3.413333-3.413333 3.413333-6.826667 3.413333-10.24 0-3.413333-1.706667-6.826667-3.413333-10.24l-150.186667-150.186667zM851.626667 373.76l-150.186667-150.186667c-5.12-5.12-13.653333-5.12-18.773333 0l-51.2 51.2c-3.413333 3.413333-3.413333 6.826667-3.413334 10.24 0 3.413333 1.706667 6.826667 3.413334 10.24l150.186666 150.186667c3.413333 3.413333 6.826667 3.413333 10.24 3.413333 3.413333 0 6.826667-1.706667 10.24-3.413333l51.2-51.2c3.413333-3.413333 3.413333-6.826667 3.413334-10.24-1.706667-5.12-1.706667-8.533333-5.12-10.24z" p-id="10142"></path><path d="M742.4 0h-358.4C199.68 0 51.2 148.48 51.2 332.8v358.4C51.2 875.52 199.68 1024 384 1024h358.4C926.72 1024 1075.2 875.52 1075.2 691.2v-358.4C1075.2 148.48 926.72 0 742.4 0z m-307.2 855.04H290.133333c-37.546667 0-68.266667-30.72-68.266666-68.266667v-145.066666c0-18.773333 6.826667-35.84 20.48-47.786667l402.773333-402.773333c27.306667-27.306667 69.973333-27.306667 97.28 0l145.066667 145.066666c27.306667 27.306667 27.306667 69.973333 0 97.28L482.986667 834.56c-11.946667 13.653333-30.72 20.48-47.786667 20.48z m436.906667 0H622.933333c-13.653333 0-25.6-11.946667-25.6-25.6 0-6.826667 3.413333-13.653333 6.826667-18.773333 5.12-5.12 11.946667-6.826667 18.773333-6.826667h249.173334c18.773333 0 34.133333 5.12 34.133333 23.893333 0 18.773333-15.36 27.306667-34.133333 27.306667z" p-id="10143"></path></svg>