<?xml version="1.0" standalone="no"?><!DOCTYPE svg PUBLIC "-//W3C//DTD SVG 1.1//EN" "http://www.w3.org/Graphics/SVG/1.1/DTD/svg11.dtd"><svg t="1632993559252" class="icon" viewBox="0 0 1025 1024" version="1.1" xmlns="http://www.w3.org/2000/svg" p-id="17933" xmlns:xlink="http://www.w3.org/1999/xlink" width="32.03125" height="32"><defs><style type="text/css"></style></defs><path d="M1013.860543 719.452148a39.969564 39.969564 0 0 1 10.392086 27.978695V983.251269a39.969564 39.969564 0 0 1-10.392086 28.778086c-6.39513 7.194521-15.188434 10.392087-24.78113 10.392087H782.836464a31.975651 31.975651 0 0 1-23.981738-10.392087 39.969564 39.969564 0 0 1-10.392087-28.778086V747.430843c0-7.993913 1.598783-13.589652 4.796348-19.984782 3.197565-6.39513 7.993913-11.191478 12.79026-14.389043a30.376868 30.376868 0 0 1 16.787217-5.595739h77.540954V551.57998a30.376868 30.376868 0 0 0-3.197566-14.389043 28.778086 28.778086 0 0 0-8.793304-10.392086 21.583564 21.583564 0 0 0-12.79026-3.996956H543.818472v184.659384h78.340345c8.793304 0 16.787217 3.996956 23.981739 11.990869a39.969564 39.969564 0 0 1 9.592695 27.978695V983.251269c0 7.194521-0.799391 13.589652-3.996956 19.984782s-7.993913 11.191478-12.790261 14.389043a30.376868 30.376868 0 0 1-16.787217 4.796348H415.915868a30.376868 30.376868 0 0 1-16.787217-4.796348 39.969564 39.969564 0 0 1-13.589651-14.389043 39.969564 39.969564 0 0 1-4.796348-19.984782V747.430843a39.969564 39.969564 0 0 1 10.392087-27.978695 31.975651 31.975651 0 0 1 24.781129-11.990869h76.741563V522.801895H189.688137a23.981738 23.981738 0 0 0-19.185391 7.993912c-4.796348 6.39513-7.194521 12.79026-7.194521 20.784173v155.881299H240.849179c10.392087 0 18.385999 3.996956 24.781129 11.990869 6.39513 7.993913 9.592695 17.586608 9.592696 27.978695V983.251269c0 11.191478-3.197565 20.784173-9.592696 28.778086-6.39513 7.194521-14.389043 10.392087-23.981738 10.392087H34.606229c-3.996956 0-7.993913 0-11.191477-1.598783a32.775042 32.775042 0 0 1-8.793304-5.595738 37.57139 37.57139 0 0 1-7.993913-7.993913 41.568346 41.568346 0 0 1-4.796348-11.191478A44.765911 44.765911 0 0 1 1.031796 983.251269V747.430843l0.799391-10.392087A31.975651 31.975651 0 0 1 5.828144 727.446061 51.161042 51.161042 0 0 1 17.019621 713.057018a23.981738 23.981738 0 0 1 7.993913-3.996956l9.592695-1.598783H112.946575V492.425026c0-7.993913 2.398174-14.389043 7.993912-19.984782 4.796348-5.595739 10.392087-7.993913 17.586608-7.993913h354.130336V315.759554h-76.741563a31.975651 31.975651 0 0 1-24.781129-11.990869 39.969564 39.969564 0 0 1-10.392087-27.179304V39.969564c0-11.191478 3.197565-20.784173 10.392087-28.778086A31.975651 31.975651 0 0 1 415.915868 0.799391h206.242949c5.595739 0 11.191478 1.598783 16.787217 5.595739a41.568346 41.568346 0 0 1 12.790261 15.188434c3.197565 5.595739 3.996956 12.79026 3.996956 19.185391v236.619818a39.969564 39.969564 0 0 1-9.592695 27.179303c-7.194521 7.993913-15.188434 11.990869-23.981739 11.990869h-78.340345V463.64694h342.139466c7.993913 0 13.589652 3.197565 19.185391 7.993913 4.796348 6.39513 7.194521 12.79026 7.194522 20.784173v215.835645h76.741562a31.975651 31.975651 0 0 1 24.78113 11.191477z" p-id="17934"></path></svg>